<svg xmlns="http://www.w3.org/2000/svg" width="18.849" height="18.848" viewBox="0 0 18.849 18.848">
  <path id="Icon_awesome-linkedin-in" data-name="Icon awesome-linkedin-in" d="M4.219,18.849H.311V6.265H4.219ZM2.263,4.548A2.274,2.274,0,1,1,4.526,2.264,2.282,2.282,0,0,1,2.263,4.548Zm16.581,14.3h-3.9V12.723c0-1.46-.029-3.332-2.032-3.332-2.032,0-2.343,1.586-2.343,3.227v6.231h-3.9V6.265h3.748V7.981h.055a4.106,4.106,0,0,1,3.7-2.032c3.955,0,4.682,2.6,4.682,5.987v6.913Z" transform="translate(0 -0.001)" fill="#51657d"/>
</svg>
