<?xml version="1.0" encoding="UTF-8"?>
<svg id="_图层_1" data-name="图层 1" xmlns="http://www.w3.org/2000/svg" version="1.1" viewBox="0 0 250 50">
  <defs>
    <style>
      .cls-1 {
        fill: #01c86e;
      }

      .cls-1, .cls-2 {
        stroke-width: 0px;
      }

      .cls-2 {
        fill: #fff;
      }
    </style>
  </defs>
  <g id="surface1">
    <path class="cls-1" d="M40.9,14.1l-8.4,14.4h-11.8l9-15.4H11.9s8.9,15.4,8.9,15.4l5.9,10.2h-9.5c-1.4,0-2.7-.8-3.4-2L1.1,14.7c-.7-1.2-.7-2.7,0-4l3.4-5.9c.7-1.2,2-2,3.4-2h25.6c1.3,0,2.4.7,3.2,1.7l3.9,5.2c.9,1.3,1,3,.2,4.3h0Z"/>
    <path class="cls-2" d="M50.2,38.7V2.9h14.1c2.7,0,5,.5,6.9,1.6,1.9,1,3.4,2.5,4.4,4.3,1,1.8,1.5,3.9,1.5,6.3s-.5,4.5-1.5,6.3c-1,1.8-2.5,3.2-4.5,4.2-1.9,1-4.3,1.5-7,1.5h-6.4v11.6h-7.6ZM57.8,21h5.1c2.2,0,3.8-.6,4.9-1.7,1.1-1.1,1.6-2.5,1.6-4.3s-.5-3.2-1.6-4.3c-1.1-1.1-2.7-1.6-4.9-1.6h-5.1v11.9Z"/>
    <path class="cls-2" d="M80.8,38.7V11.8h7.2v4.7h.3c.5-1.7,1.3-2.9,2.5-3.8,1.1-.9,2.5-1.3,4-1.3s1.4,0,2,.3c.6.2,1.2.4,1.7.7l-2.2,6.2c-.4-.2-.7-.3-1.2-.4-.4-.1-.9-.2-1.4-.2-1.5,0-2.8.5-3.8,1.5-1,1-1.6,2.4-1.6,4v15.2h-7.4Z"/>
    <path class="cls-2" d="M112.2,39.2c-2.7,0-5.1-.6-7-1.7-2-1.2-3.5-2.8-4.6-4.9-1.1-2.1-1.6-4.5-1.6-7.2s.5-5.2,1.6-7.3c1.1-2.1,2.6-3.7,4.6-4.9,2-1.2,4.3-1.7,7-1.7s5.1.6,7,1.7c2,1.2,3.5,2.8,4.6,4.9,1.1,2.1,1.6,4.5,1.6,7.3s-.5,5.2-1.6,7.2c-1.1,2.1-2.6,3.7-4.6,4.9-2,1.2-4.3,1.7-7,1.7ZM112.2,33.4c1.8,0,3.2-.8,4.2-2.3.9-1.5,1.4-3.5,1.4-5.8s-.5-4.3-1.4-5.8c-.9-1.5-2.3-2.3-4.2-2.3s-3.3.8-4.2,2.3c-1,1.6-1.4,3.5-1.4,5.8s.5,4.3,1.4,5.8c1,1.5,2.4,2.3,4.2,2.3Z"/>
    <path class="cls-2" d="M129.6,48.7V11.8h7.3v4.5h.3c.3-.7.8-1.5,1.4-2.2.6-.8,1.4-1.4,2.5-1.9,1-.5,2.3-.8,3.8-.8s3.8.5,5.4,1.5c1.6,1,3,2.6,4,4.6,1,2.1,1.5,4.6,1.5,7.7s-.5,5.5-1.4,7.6c-1,2.1-2.3,3.6-3.9,4.7-1.7,1-3.5,1.6-5.5,1.6s-2.7-.2-3.7-.7c-1-.5-1.8-1.1-2.5-1.8-.6-.7-1.1-1.5-1.5-2.2h-.2v14.4h-7.4ZM136.9,25.2c0,2.4.5,4.3,1.5,5.8,1,1.4,2.4,2.2,4.2,2.2s3.2-.7,4.2-2.2c1-1.5,1.5-3.4,1.5-5.7s-.5-4.2-1.4-5.7-2.4-2.2-4.2-2.2-3.2.7-4.2,2.1-1.5,3.3-1.5,5.7h0Z"/>
    <path class="cls-2" d="M172.2,39.2c-2.8,0-5.1-.6-7.1-1.7-2-1.1-3.5-2.7-4.6-4.8-1.1-2.1-1.6-4.5-1.6-7.4s.5-5.2,1.6-7.3c1.1-2.1,2.6-3.7,4.5-4.9,1.9-1.2,4.2-1.8,6.9-1.8s4.5.5,6.4,1.5c1.9,1,3.4,2.5,4.5,4.5,1.1,2,1.7,4.6,1.7,7.6v2h-18.3c0,2,.6,3.6,1.6,4.8,1.1,1.1,2.6,1.7,4.4,1.7s2.3-.3,3.2-.8c.9-.5,1.6-1.3,1.9-2.3l6.9.5c-.5,2.5-1.9,4.5-4,6-2.1,1.5-4.9,2.2-8.2,2.2ZM166.2,22.5h11.3c0-1.6-.5-2.9-1.5-3.9-1-1-2.3-1.6-3.9-1.6s-3,.5-4.1,1.6c-1.1,1.1-1.6,2.4-1.7,3.9Z"/>
    <path class="cls-2" d="M188.2,38.7V11.8h7.2v4.7h.3c.5-1.7,1.3-2.9,2.5-3.8,1.2-.9,2.5-1.3,4-1.3s1.6,0,2.3.3v6.6c-.4-.1-.8-.2-1.4-.3-.6,0-1.2-.1-1.7-.1-1.6,0-3,.5-4.1,1.6-1.1,1-1.6,2.4-1.6,4v15.2h-7.4Z"/>
    <path class="cls-2" d="M208.1,11.8v-1.9c0-2.9.8-5.1,2.5-6.5,1.7-1.4,3.8-2.1,6.3-2.1s2.2,0,3.1.3c.9.2,1.7.3,2.1.5l-1.3,5.6c-.3,0-.7-.2-1.1-.3-.4,0-.9-.1-1.3-.1-1.1,0-1.9.2-2.3.8-.4.5-.6,1.2-.6,2.1v1.8h5.3v5.6h-5.3v21.3h-7.5v-21.3"/>
    <path class="cls-2" d="M231.1,11.8l4.9,9.4,5.1-9.4h7.6l-7.8,13.4,8,13.4h-7.6l-5.3-9.3-5.2,9.3h-7.7l8-13.4-7.7-13.4h7.7Z"/>
  </g>
</svg>