<svg xmlns="http://www.w3.org/2000/svg" width="53.103" height="53.103" viewBox="0 0 53.103 53.103">
  <g id="world_www_web_website" data-name="world www web website" transform="translate(-295 296)">
    <path id="Path_10678" data-name="Path 10678" d="M75.7-72.775A26.553,26.553,0,0,0,49.152-46.223,26.552,26.552,0,0,0,75.7-19.672a26.551,26.551,0,0,0,26.551-26.551A26.552,26.552,0,0,0,75.7-72.775ZM89.367-38.238A49.541,49.541,0,0,0,90-46.223a48.223,48.223,0,0,0-.654-7.986c5.494,2.022,8.823,5.086,8.823,7.986S94.718-40.1,89.367-38.238Zm-36.13-7.986c0-3,3.452-6.025,8.8-7.986a50.048,50.048,0,0,0-.633,7.986,48.647,48.647,0,0,0,.654,7.986C56.566-40.26,53.237-43.323,53.237-46.223ZM66.513-66.648a29.031,29.031,0,0,0-3.431,7.8,29.1,29.1,0,0,0-7.8,3.411A22.476,22.476,0,0,1,66.513-66.648ZM55.279-37.033A29.887,29.887,0,0,0,64.1-33.356h.184A47.732,47.732,0,0,0,75.7-31.927a34.638,34.638,0,0,0,3.595-.123,2.044,2.044,0,0,0,1.9-2.185,2.047,2.047,0,0,0-2.185-1.9q-1.611.123-3.309.123a42.648,42.648,0,0,1-9.232-.96,43.609,43.609,0,0,1-.98-9.252c0-13.235,5.392-22.467,10.212-22.467,2.042,0,4.085,1.552,5.9,4.371a2.043,2.043,0,0,0,1.716.96,2.022,2.022,0,0,0,1.1-.306,2.041,2.041,0,0,0,.635-2.816l0,0a1.532,1.532,0,0,0-.143-.2A22.469,22.469,0,0,1,96.128-55.414a30.565,30.565,0,0,0-9.15-3.758h0A47.423,47.423,0,0,0,75.7-60.52a34.634,34.634,0,0,0-3.595.123,2.049,2.049,0,0,0-1.9,2.185,2.047,2.047,0,0,0,2.185,1.9q1.636-.123,3.309-.123a42.75,42.75,0,0,1,9.232.96,43.372,43.372,0,0,1,.98,9.252c0,13.235-5.392,22.467-10.212,22.467-2.042,0-4.085-1.552-5.9-4.371a2.042,2.042,0,0,0-2.761-.844,2.042,2.042,0,0,0-.844,2.763,1.893,1.893,0,0,0,.153.245,1.822,1.822,0,0,0,.143.2A22.469,22.469,0,0,1,55.279-37.033ZM84.894-25.8a28.973,28.973,0,0,0,3.431-7.863,28.9,28.9,0,0,0,7.8-3.35A22.445,22.445,0,0,1,84.894-25.8Z" transform="translate(245.848 -223.225)" fill="#7e8299"/>
  </g>
</svg>
